<svg>
    <symbol id="album" viewBox="-14.226 -11.958 28.452 23.915">
        <path d="M-11.71-2.329l6.395,6.051L2.04-4.542l4.473,4.554l5.198-5.417l-1.175-1.297L6.574-2.65l-3.26-3.271l1.975-2.243 L4.03-9.446L-5.43,0.798l-4.961-4.589L-11.71-2.329L-11.71-2.329z M2.021,0.128c1.546,0,2.799,1.253,2.799,2.799 c0,1.545-1.253,2.798-2.799,2.798c-1.545,0-2.798-1.253-2.798-2.798C-0.777,1.381,0.476,0.128,2.021,0.128L2.021,0.128z M2.021,1.165c0.974,0,1.762,0.789,1.762,1.762c0,0.975-0.789,1.764-1.762,1.764S0.259,3.9,0.259,2.927 C0.259,1.954,1.048,1.165,2.021,1.165z" transform="matrix(1 0 0 -1 0 0)"></path>
        <polygon stroke-width="0.216" stroke-miterlimit="22.9256" points="-14.118,11.85 14.118,11.85 14.118,-5.452 12.357,-5.452 12.357,10.373 -12.357,10.373 -12.357,-10.373 12.357,-10.373 12.357,-7.945 14.118,-7.945 14.118,-11.85 -14.118,-11.85 " transform="matrix(1 0 0 -1 0 0)"></polygon>
    </symbol>
    <symbol id="camera" viewBox="-14.347 -11.252 28.693 22.504">
        <path fill="#B5B5B6" stroke="#B5B5B6" stroke-width="1.9199" stroke-linejoin="round" stroke-miterlimit="22.9256" d=" M-13.387,7.227h7.065l2.142,3.063l8.657,0.003l2.767-3.063h6.142v-17.521h-26.773V7.227L-13.387,7.227z M0.521-8.044 c3.433,0,6.216,2.783,6.216,6.216c0,3.435-2.783,6.217-6.216,6.217s-6.216-2.781-6.216-6.216C-5.695-5.26-2.914-8.044,0.521-8.044 L0.521-8.044z M0.521-6.378c2.513,0,4.55,2.037,4.55,4.55s-2.037,4.55-4.55,4.55s-4.55-2.037-4.55-4.55S-1.994-6.378,0.521-6.378z" transform="matrix(1 0 0 -1 0 0)"></path>
        <polygon fill="#FFFFFF" points="-11.909,1.748 -7.958,1.748 -7.958,5.165 -11.909,5.165 " transform="matrix(1 0 0 -1 0 0)"></polygon>
        <polygon fill="#B5B5B6" points="-11.854,8.453 -8.224,8.453 -8.224,10.001 -11.854,10.001 " transform="matrix(1 0 0 -1 0 0)"></polygon>
        <path fill="#FFFFFF" stroke="#FFFFFF" stroke-width="0.216" stroke-miterlimit="22.9256" d="M0.521-8.044 c-3.433,0-6.216,2.783-6.216,6.216c0,3.435,2.783,6.216,6.216,6.216s6.216-2.781,6.216-6.216C6.735-5.261,3.954-8.044,0.521-8.044 L0.521-8.044z M0.521-6.378c2.513,0,4.55,2.037,4.55,4.55s-2.037,4.55-4.55,4.55s-4.55-2.037-4.55-4.55S-1.994-6.378,0.521-6.378z" transform="matrix(1 0 0 -1 0 0)"></path>
    </symbol>
    <symbol id="company" viewBox="-14.132 -14.132 28.264 28.264">
        <path stroke-width="0.216" stroke-miterlimit="22.9256" d="M0.989,9.503l8.775-9.317L8.508-0.966L0.292,7.752 l-7.199-7.293c0.561-0.009,1.122-0.018,1.682-0.028C-4.729,0.401-4.354,0.008-4.4-0.548l-0.049-6.381l1.622,0.004l0.002,3.456 c0.104,0.798,0.602,0.87,0.836,0.913l4.294-0.025c0.23,0.021,0.984,0.016,1.041-0.871L3.287-6.883L4.962-6.9l0.026,6.356 l1.705-0.002L6.7-7.771C6.725-7.938,6.584-8.66,5.794-8.648L2.475-8.633C2.207-8.638,1.608-8.469,1.607-7.674l0.025,3.389 l-2.725,0.02l-0.062-3.611c0,0,0.094-0.703-0.79-0.735C-3.08-8.655-4.194-8.627-5.33-8.631c-0.277,0.027-0.752,0.087-0.857,0.948 l0.047,6.448l-2.923,0.04c-0.66,0.142-1.039,0.885-0.284,1.642l9.052,9.065C0.037,9.846,0.652,9.902,0.989,9.503z" transform="matrix(1 0 0 -1 0 0)"></path>
        <path stroke-width="0.5669" stroke-miterlimit="22.9256" d="M10.067-9.511c4.806,5.075,5.107,13.063,0.467,18.5 c-4.964,5.816-13.705,6.51-19.523,1.545c-5.818-4.965-6.509-13.706-1.544-19.524c4.638-5.436,12.573-6.396,18.34-2.449 l-0.824,0.968C1.75-13.971-5.388-13.075-9.574-8.17C-14.086-2.883-13.458,5.062-8.17,9.574c5.288,4.512,13.232,3.884,17.744-1.404 c4.187-4.906,3.947-12.098-0.332-16.715L10.067-9.511z" transform="matrix(1 0 0 -1 0 0)"></path>
    </symbol>
    <symbol id="discover" viewBox="-14.132 -14.132 28.264 28.264">
        <path stroke-width="0.5669" stroke-miterlimit="22.9256" d="M11.691,7.424c3.754-5.896,2.531-13.796-3.057-18.251 c-5.98-4.768-14.693-3.786-19.461,2.194c-4.768,5.979-3.786,14.69,2.194,19.461c5.587,4.455,13.56,3.889,18.472-1.082L8.846,8.955 c-4.472,4.428-11.65,4.906-16.692,0.886C-13.281,5.508-14.174-2.411-9.84-7.847c4.333-5.437,12.252-6.328,17.688-1.994 c5.042,4.02,6.174,11.126,2.851,16.473L11.691,7.424z" transform="matrix(1 0 0 -1 0 0)"></path>
        <path stroke-width="0.216" stroke-miterlimit="22.9256" d="M0.717-0.886C0.2-1.253-0.517-1.132-0.885-0.616 c-0.368,0.519-0.247,1.235,0.271,1.604c0.518,0.368,1.234,0.246,1.602-0.271C1.356,0.199,1.234-0.518,0.717-0.886L0.717-0.886z M-1.445,2.045l-7.909-9.01L1.541-1.95l7.916,9.018L-1.445,2.045L-1.445,2.045z M-0.884,1.295L-6.869-5.09l7.824,3.907l6.277,6.529 L-0.884,1.295L-0.884,1.295z M0.507-0.59c0.354,0.252,0.437,0.743,0.185,1.096C0.44,0.86-0.05,0.942-0.404,0.691 C-0.758,0.439-0.84-0.052-0.589-0.405C-0.338-0.758,0.154-0.842,0.507-0.59z" transform="matrix(1 0 0 -1 0 0)"></path>
    </symbol>
    <symbol id="discussion" viewBox="-13.784 -14.593 27.569 29.185">
        <path stroke-width="0.5669" stroke-miterlimit="22.9256" d="M-5.484,2.056c0.742,0,1.344-0.602,1.344-1.344 s-0.602-1.344-1.344-1.344c-0.742,0-1.344,0.602-1.344,1.344S-6.226,2.056-5.484,2.056L-5.484,2.056z M-0.176,14.309 c-7.359,0-13.325-5.966-13.325-13.323c0-7.359,5.966-13.324,13.325-13.324c0.995,0,2.295,0.295,3.485,0.654l-0.554,1.313 c-1.051-0.345-2.124-0.619-2.922-0.619c-6.565,0-11.887,5.322-11.887,11.888c0,6.564,5.322,11.887,11.887,11.887 c6.564,0,11.886-5.322,11.886-11.887c0-2.16-1.149-5.121-2.308-7.302l1.885-5.182L6.504-8.98c-0.062,0.034-0.82-0.297-1.845-0.697 l0.568-1.348c0.813,0.316,1.337,0.573,1.276,0.605l6.8-3.598l-2.418,7.57l0.342,0.536c1.265,1.981,1.919,4.371,1.919,6.896 C13.148,8.343,7.183,14.309-0.176,14.309L-0.176,14.309z M5.004,2.056c0.742,0,1.344-0.602,1.344-1.344S5.746-0.631,5.004-0.631 c-0.742,0-1.344,0.602-1.344,1.344S4.262,2.056,5.004,2.056L5.004,2.056z M-0.098,2.056c0.742,0,1.344-0.602,1.344-1.344 S0.644-0.631-0.098-0.631c-0.742,0-1.344,0.601-1.344,1.343S-0.84,2.056-0.098,2.056z" transform="matrix(1 0 0 -1 0 0)"></path>
    </symbol>
    <symbol id="erweima" viewBox="-14.174 -14.277 28.349 28.555">
        <path d="M-14.125,14.042H-1.65l0.007-12.485h-12.481V14.042L-14.125,14.042z M-9.172-1.788l7.534,0.015v-2.495 l-2.497,0.002v-2.498h2.497v-4.994h-2.497v-2.496l-4.993,0.001v2.495l2.493,0.008l0.002,2.49l2.479-0.017l0.018,2.513h-2.497 L-6.635-4.27l-2.537-0.017V-1.788L-9.172-1.788z M-14.174-9.263h2.542v-4.991h-2.542V-9.263L-14.174-9.263z M-14.17-1.771v-4.991 h2.539v-2.496h2.497v2.496h-2.494v4.991H-14.17L-14.17-1.771z M9.175-1.77L4.188-1.773l0.004-2.51L1.692-4.263L1.69-9.262 l2.494-0.002l0.001,2.497h2.498L6.682-9.253L9.18-9.257L9.175-1.77L9.175-1.77z M9.176-11.758l2.5-0.001v2.498l2.498-0.003 l-0.002-4.984l-4.992-0.01L9.176-11.758L9.176-11.758z M1.639-11.78l2.496,0.001v-2.498H1.64L1.639-11.78L1.639-11.78z M11.67-1.785h2.497v-2.497H11.67V-1.785L11.67-1.785z M9.181,11.781l2.497-0.002v2.498h2.497V11.78l-2.497-0.001l-0.002-2.496 h2.499l-0.001-4.994h-2.496l-0.001,2.498L9.181,6.788v4.991l-4.998,0.004l0.004-2.504L1.69,9.283v4.994h7.483L9.181,11.781 L9.181,11.781z M11.646,1.793l-0.001,2.498L9.149,4.288v2.499H4.155V4.296L1.676,4.295V1.799h2.497v2.492l2.479-0.002l0.001-2.496 H11.646L11.646,1.793z M-9.189,9.054V6.557h2.497v2.497H-9.189L-9.189,9.054z M-11.644,11.562l-0.094-7.548l7.6,0.031l0.004,7.501 L-11.644,11.562z" transform="matrix(1 0 0 -1 0 0)"></path>
    </symbol>
    <symbol id="huodong" viewBox="-14.132 -14.132 28.263 28.263">
        <path stroke-width="1.9199" stroke-miterlimit="22.9256" d="M0.915,1.002C2.437,1.662,4.563,1.228,5.7,0.274 c1.255-1.054,1.231-3.15,0.18-4.404C3.975-6.401,0.023-4.681-4.157-5.048c-0.367,4.18-2.75,7.771-0.846,10.044 c1.051,1.253,3.113,1.643,4.368,0.591C0.502,4.633,1.3,2.615,0.915,1.002z" transform="matrix(1 0 0 -1 0 0)"></path>
        <path stroke-width="0.5669" stroke-miterlimit="22.9256" d="M-10.066-9.511c-4.807,5.075-5.107,13.063-0.468,18.5 c4.965,5.816,13.706,6.51,19.523,1.545c5.817-4.965,6.509-13.706,1.544-19.523c-4.639-5.436-12.573-6.396-18.34-2.45l0.824,0.968 C-1.75-13.971,5.388-13.075,9.574-8.17C14.086-2.883,13.458,5.062,8.17,9.574C2.882,14.086-5.062,13.458-9.574,8.17 c-4.187-4.905-3.947-12.098,0.333-16.715L-10.066-9.511z" transform="matrix(1 0 0 -1 0 0)"></path>
    </symbol>
    <symbol id="location" viewBox="-11.358 -14.419 22.716 28.838">
        <path stroke-width="0.216" stroke-miterlimit="22.9256" d="M-0.001-14.276c-3.73,2.871-8.672,8.946-9.804,11.817 c-0.687,1.741-1.445,3.515-1.445,5.521c0,6.215,5.037,11.25,11.25,11.25s11.25-5.035,11.25-11.25c0-1.097-0.169-2.314-0.432-3.372 L9.419,0.348C9.6,1.175,9.712,2.085,9.712,2.915c0,5.364-4.349,9.713-9.714,9.713c-5.364,0-9.713-4.349-9.713-9.713 c0-1.733,0.655-3.264,1.248-4.768c0.978-2.479,5.245-7.725,8.466-10.202c1.892,1.808,4.389,3.48,8.26,9.595l1.349-0.637 C5.099-10.23,2.196-12.176-0.001-14.276z" transform="matrix(1 0 0 -1 0 0)"></path>
        <path stroke-width="0.216" stroke-miterlimit="22.9256" d="M0.485-1.767c-2.523,0-4.568,2.045-4.568,4.566 c0,2.523,2.045,4.568,4.568,4.568c2.522,0,4.567-2.045,4.567-4.568C5.052,0.279,3.007-1.767,0.485-1.767L0.485-1.767z M0.485-0.407 c1.771,0,3.208,1.438,3.208,3.208c0,1.772-1.437,3.208-3.208,3.208c-1.772,0-3.208-1.436-3.208-3.208 C-2.723,1.029-1.287-0.407,0.485-0.407z" transform="matrix(1 0 0 -1 0 0)"></path>
    </symbol>
    <symbol id="mine" viewBox="-14.132 -14.131 28.263 28.261">
        <path stroke-width="0.216" stroke-miterlimit="22.9256" d="M5.809-8.566h1.469c0,3.21-2.041,5.944-4.896,6.978 C4.241-0.664,5.52,1.256,5.52,3.476c0,3.125-2.533,5.657-5.657,5.657c-3.125,0-5.658-2.533-5.658-5.657 c0-2.22,1.279-4.14,3.139-5.065c-2.855-1.031-4.896-3.767-4.896-6.978h1.469c0,3.284,2.662,5.946,5.946,5.946 C3.146-2.62,5.809-5.283,5.809-8.566L5.809-8.566z M-0.137-0.758c-2.338,0-4.234,1.896-4.234,4.232c0,2.34,1.896,4.233,4.234,4.233 c2.338,0,4.233-1.896,4.233-4.233S2.201-0.758-0.137-0.758z" transform="matrix(1 0 0 -1 0 0)"></path>
        <path stroke-width="0.5669" stroke-miterlimit="22.9256" d="M-10.142-9.43c-4.766,5.111-5.002,13.104-0.32,18.503 c5.011,5.776,13.757,6.397,19.535,1.389c5.778-5.011,6.399-13.757,1.388-19.535C5.779-14.47-2.163-15.368-7.898-11.376l0.832,0.959 c5.204-3.539,12.35-2.701,16.574,2.17c4.554,5.251,3.989,13.201-1.262,17.755c-5.251,4.557-13.201,3.99-17.755-1.262 C-13.734,3.375-13.552-3.819-9.31-8.47L-10.142-9.43z" transform="matrix(1 0 0 -1 0 0)"></path>
    </symbol>
    <symbol id="paihangban" viewBox="-13.952 -13.34 27.903 26.68">
        <polygon fill-rule="evenodd" clip-rule="evenodd" points="-13.945,2.209 -6.843,2.207 -6.846,0.289 -12.031,0.292 -12.03,-11.42 12.028,-11.424 12.029,-3.126 6.923,-3.131 6.919,-1.206 13.952,-1.201 13.95,-13.34 -13.952,-13.338 " transform="matrix(1 0 0 -1 0 0)"></polygon>
        <polygon fill-rule="evenodd" clip-rule="evenodd" points="-5.382,7.715 5.295,7.713 5.296,-7.154 3.379,-7.152 3.377,5.793 -3.434,5.793 -3.43,-7.159 -5.352,-7.162 " transform="matrix(1 0 0 -1 0 0)"></polygon>
        <polygon fill-rule="evenodd" clip-rule="evenodd" points="-12.975,3.622 -11.309,3.622 -11.309,7.277 -12.975,7.277 " transform="matrix(1 0 0 -1 0 0)"></polygon>
        <polygon fill-rule="evenodd" clip-rule="evenodd" points="-10.176,3.625 -8.51,3.625 -8.51,7.279 -10.176,7.279 " transform="matrix(1 0 0 -1 0 0)"></polygon>
        <polygon fill-rule="evenodd" clip-rule="evenodd" points="-0.827,9.685 0.84,9.685 0.84,13.34 -0.827,13.34 " transform="matrix(1 0 0 -1 0 0)"></polygon>
        <polygon fill-rule="evenodd" clip-rule="evenodd" points="12.249,0.512 13.915,0.512 13.915,4.168 12.249,4.168 " transform="matrix(1 0 0 -1 0 0)"></polygon>
        <polygon fill-rule="evenodd" clip-rule="evenodd" points="6.936,0.471 8.602,0.471 8.602,4.127 6.936,4.127 " transform="matrix(1 0 0 -1 0 0)"></polygon>
        <polygon fill-rule="evenodd" clip-rule="evenodd" points="9.778,0.504 11.444,0.504 11.444,4.16 9.778,4.16 " transform="matrix(1 0 0 -1 0 0)"></polygon>
    </symbol>
    <symbol id="picture" viewBox="-14.101 -11.855 28.201 23.71">
        <path stroke-width="0.216" stroke-miterlimit="22.9256" d="M-13.993,11.747h27.985v-23.494h-27.985V11.747 L-13.993,11.747z M-11.88,9.651l-0.001-11.686l6.786,6.114l7.193-8.086L6.457,0.44l5.441-5.512L11.933,9.66L-11.88,9.651z" transform="matrix(1 0 0 -1 0 0)"></path>
        <path stroke-width="0.216" stroke-miterlimit="22.9256" d="M1.938,0.855c-1.479,0-2.679,1.197-2.679,2.678 c0,1.479,1.199,2.679,2.679,2.679c1.479,0,2.678-1.199,2.678-2.679C4.617,2.053,3.417,0.855,1.938,0.855L1.938,0.855z M1.938,1.675 c1.026,0,1.859,0.833,1.859,1.859c0,1.025-0.834,1.858-1.859,1.858c-1.027,0-1.859-0.832-1.859-1.857 C0.079,2.507,0.912,1.675,1.938,1.675z" transform="matrix(1 0 0 -1 0 0)"></path>
    </symbol>
    <symbol id="pinglun" viewBox="-14.268 -13.253 28.536 26.506">
        <polygon points="-12.278,-4.092 -4.823,-4.154 -4.842,-6.072 -14.186,-5.979 -14.268,13.253 14.162,13.197 14.268,-6.061 0.203,-6.087 -6.496,-13.253 -7.899,-11.948 -0.631,-4.169 12.338,-4.147 12.254,11.279 -12.33,11.279 " transform="matrix(1 0 0 -1 0 0)"></polygon>
        <polygon points="-8.648,4.323 -4.411,4.323 -4.411,2.41 -8.648,2.41 " transform="matrix(1 0 0 -1 0 0)"></polygon>
        <polygon points="-2.367,4.285 1.87,4.285 1.87,2.373 -2.367,2.373 " transform="matrix(1 0 0 -1 0 0)"></polygon>
        <polygon points="3.914,4.285 8.151,4.285 8.151,2.373 3.914,2.373 " transform="matrix(1 0 0 -1 0 0)"></polygon>
    </symbol>
    <symbol id="renshu" viewBox="-16.89 -14.12 33.78 28.238">
        <path stroke-width="0.216" stroke-miterlimit="22.9256" d="M-8.143-2.563c-3.14,1.282-5.354,4.367-5.354,7.971 c0,4.752,3.852,8.604,8.605,8.604c4.752,0,8.605-3.853,8.605-8.604c0-3.601-2.209-6.683-5.346-7.965 C3.361-3.973,7.02-8.565,7.02-14.012H5.669c0,5.827-4.724,10.55-10.55,10.55c-5.826,0-10.55-4.724-10.55-10.55h-1.351 C-16.783-8.57-13.13-3.981-8.143-2.563L-8.143-2.563z M-4.892-1.847c4.006,0,7.253,3.248,7.253,7.253s-3.248,7.253-7.253,7.253 s-7.254-3.248-7.254-7.253S-8.897-1.847-4.892-1.847z" transform="matrix(1 0 0 -1 0 0)"></path>
        <path stroke-width="0.216" stroke-miterlimit="22.9256" d="M5.578,12.181l0.161,0.002 c4.406,0,7.978-3.57,7.978-7.978c0-3.337-2.048-6.194-4.956-7.385c4.629-1.313,8.021-5.568,8.021-10.618H15.53 c0,5.4-4.379,9.781-9.781,9.781L5.578-4.018v1.5L5.739-2.52c3.714,0,6.725,3.011,6.725,6.725S9.453,10.93,5.739,10.93l-0.161-0.002 V12.181z" transform="matrix(1 0 0 -1 0 0)"></path>
    </symbol>
    <symbol id="taolun" viewBox="-13.371 -13.929 26.743 27.858">
        <path stroke-width="1.9199" stroke-miterlimit="22.9256" d="M3.837-10.428 c1.436,0.584,2.066,0.938,2.671,1.354c1.747-0.957,3.493-1.913,5.239-2.87C9.8-5.699,10.449-7.78,9.8-5.699 c1.334,2.055,1.953,4.289,1.953,6.586c0,6.671-5.411,12.082-12.082,12.082s-12.082-5.41-12.082-12.081 c0-6.67,5.411-12.082,12.082-12.082C0.837-11.194,1.969-11.034,3.837-10.428L3.837-10.428z M4.943,1.921 c0.742,0,1.344-0.602,1.344-1.344S5.685-0.767,4.943-0.767c-0.742,0-1.344,0.602-1.344,1.345S4.201,1.921,4.943,1.921L4.943,1.921z M-0.159,1.921c0.742,0,1.344-0.602,1.344-1.344S0.583-0.767-0.159-0.767c-0.742,0-1.344,0.602-1.344,1.344 S-0.901,1.921-0.159,1.921L-0.159,1.921z M-5.545,1.921c0.742,0,1.344-0.602,1.344-1.344s-0.602-1.344-1.344-1.344 c-0.742,0-1.344,0.602-1.344,1.344S-6.287,1.921-5.545,1.921z" transform="matrix(1 0 0 -1 0 0)"></path>
        <path stroke-width="0.5669" stroke-miterlimit="22.9256" d="M-5.545,1.921 c0.742,0,1.344-0.602,1.344-1.344s-0.602-1.344-1.344-1.344c-0.742,0-1.344,0.602-1.344,1.344S-6.287,1.921-5.545,1.921z" transform="matrix(1 0 0 -1 0 0)"></path>
        <path stroke-width="0.5669" stroke-miterlimit="22.9256" d="M-0.159,1.921 c0.742,0,1.344-0.602,1.344-1.344S0.583-0.767-0.159-0.767c-0.742,0-1.344,0.602-1.344,1.344S-0.901,1.921-0.159,1.921z" transform="matrix(1 0 0 -1 0 0)"></path>
        <path stroke-width="0.5669" stroke-miterlimit="22.9256" d="M4.943,1.921 c0.742,0,1.344-0.602,1.344-1.344S5.685-0.767,4.943-0.767c-0.742,0-1.344,0.602-1.344,1.345S4.201,1.921,4.943,1.921z" transform="matrix(1 0 0 -1 0 0)"></path>
    </symbol>
    <symbol id="time" viewBox="-14.132 -14.131 28.264 28.263">
        <polygon points="-1.084,7.746 0.791,7.746 0.791,-0.11 5.928,-0.11 5.938,-2.001 0.791,-2.004 0.791,-2.529 -1.084,-2.529 " transform="matrix(1 0 0 -1 0 0)"></polygon>
        <path stroke-width="0.5669" stroke-miterlimit="22.9256" d="M-11.705-7.403 c-3.743,5.902-2.505,13.802,3.091,18.246c5.989,4.757,14.7,3.759,19.457-2.229c4.757-5.989,3.759-14.7-2.229-19.457 c-5.596-4.444-13.567-3.864-18.47,1.115l0.994,0.788c4.464-4.437,11.641-4.928,16.69-0.917c5.443,4.323,6.351,12.241,2.027,17.686 c-4.323,5.443-12.241,6.35-17.684,2.027c-5.05-4.014-6.194-11.116-2.881-16.47L-11.705-7.403z" transform="matrix(1 0 0 -1 0 0)"></path>
    </symbol>
    <symbol id="yibaoming" viewBox="-16.748 -14.301 33.496 28.603">
        <path stroke-width="0.216" stroke-miterlimit="22.9256" d="M5.435,11.927l0.161,0.002 c4.406,0,7.978-3.57,7.978-7.978c0-3.337-2.048-6.194-4.956-7.385c4.63-1.312,8.022-5.567,8.022-10.617h-1.253 c0,5.4-4.379,9.781-9.781,9.781L5.435-4.272v1.5l0.161-0.001c3.714,0,6.725,3.013,6.725,6.727c0,3.713-3.011,6.725-6.725,6.725 l-0.161-0.002V11.927z" transform="matrix(1 0 0 -1 0 0)"></path>
        <path stroke-width="0.216" stroke-miterlimit="22.9256" d="M-4.599-14.193H-16.64 c0,5.515,3.705,10.16,8.76,11.59c-3.164,1.312-5.39,4.43-5.39,8.066c0,4.821,3.909,8.73,8.73,8.73s8.73-3.909,8.73-8.73 c0-3.658-2.25-6.789-5.439-8.088c5.02-1.452,8.691-6.081,8.691-11.568H-4.599z" transform="matrix(1 0 0 -1 0 0)"></path>
    </symbol>
</svg>