<svg>
    <symbol id="album" viewBox="-14.226 -11.958 28.451 23.916">
        <path fill-rule="evenodd" clip-rule="evenodd" d="M-11.71-2.328l6.395,6.051l7.355-8.266l4.473,4.555l5.197-5.418 l-1.174-1.297L6.574-2.65l-3.26-3.272l1.975-2.243l-1.259-1.28L-5.43,0.798l-4.961-4.589L-11.71-2.328L-11.71-2.328z M2.021,0.129 c1.546,0,2.799,1.252,2.799,2.799c0,1.545-1.253,2.798-2.799,2.798c-1.545,0-2.798-1.253-2.798-2.798 C-0.777,1.381,0.476,0.129,2.021,0.129L2.021,0.129z M2.021,1.165c0.974,0,1.762,0.788,1.762,1.763 c0,0.973-0.789,1.762-1.762,1.762c-0.973,0-1.762-0.789-1.762-1.762C0.259,1.953,1.048,1.165,2.021,1.165z" transform="matrix(1 0 0 -1 0 0)"></path>
        <polygon fill-rule="evenodd" clip-rule="evenodd" stroke="#231815" stroke-width="0.216" stroke-miterlimit="22.9256" points=" -14.118,11.85 14.118,11.85 14.118,-5.451 12.357,-5.451 12.357,10.373 -12.358,10.373 -12.358,-10.373 12.357,-10.373 12.357,-7.945 14.118,-7.945 14.118,-11.85 -14.118,-11.85 " transform="matrix(1 0 0 -1 0 0)"></polygon>
    </symbol>
    <symbol id="camera" viewBox="-14.347 -11.252 28.693 22.504">
        <path fill="#B5B5B6" stroke="#B5B5B6" stroke-width="1.9199" stroke-linejoin="round" stroke-miterlimit="22.9256" d=" M-13.387,7.226h7.065l2.142,3.063l8.657,0.003l2.767-3.063h6.142v-17.521h-26.773V7.226L-13.387,7.226z M0.521-8.045 c3.433,0,6.216,2.783,6.216,6.216c0,3.438-2.783,6.217-6.216,6.217S-5.694,1.61-5.694-1.828C-5.691-5.261-2.914-8.045,0.521-8.045 L0.521-8.045z M0.521-6.379c2.513,0,4.55,2.037,4.55,4.55s-2.037,4.55-4.55,4.55s-4.55-2.037-4.55-4.55S-1.994-6.379,0.521-6.379z" transform="matrix(1 0 0 -1 0 0)"></path>
        <polygon fill="#FFFFFF" points="-11.909,1.747 -7.958,1.747 -7.958,5.164 -11.909,5.164 " transform="matrix(1 0 0 -1 0 0)"></polygon>
        <polygon fill="#B5B5B6" points="-11.854,8.452 -8.224,8.452 -8.224,10 -11.854,10 " transform="matrix(1 0 0 -1 0 0)"></polygon>
        <path fill="#FFFFFF" stroke="#FFFFFF" stroke-width="0.216" stroke-miterlimit="22.9256" d="M0.521-8.045 c-3.433,0-6.216,2.783-6.216,6.216c0,3.438,2.783,6.216,6.216,6.216s6.216-2.777,6.216-6.216C6.735-5.262,3.958-8.045,0.521-8.045 L0.521-8.045z M0.521-6.379c2.513,0,4.55,2.037,4.55,4.55s-2.037,4.55-4.55,4.55s-4.55-2.037-4.55-4.55S-1.994-6.379,0.521-6.379z" transform="matrix(1 0 0 -1 0 0)"></path>
    </symbol>
    <symbol id="company" viewBox="-14.632 -14.632 29.263 29.264">
        <path fill-rule="evenodd" clip-rule="evenodd" stroke-width="0.216" stroke-miterlimit="22.9256" d=" M1.024,9.847l9.092-9.653L8.814-1.001L0.302,8.031l-7.459-7.556c0.581-0.01,1.162-0.019,1.743-0.028 C-4.9,0.416-4.512,0.008-4.559-0.567L-4.61-7.179l1.68,0.005l0.002,3.58c0.108,0.827,0.624,0.9,0.866,0.945l4.449-0.025 c0.238,0.02,1.02,0.016,1.078-0.902L3.405-7.132l1.736-0.017l0.027,6.586l1.767-0.002l0.006-7.488 c0.026-0.172-0.12-0.92-0.938-0.908L2.564-8.945C2.286-8.95,1.666-8.775,1.665-7.951L1.69-4.439l-2.824,0.018l-0.064-3.741 c0,0,0.097-0.729-0.819-0.762c-1.175-0.042-2.33-0.014-3.507-0.019c-0.288,0.028-0.779,0.09-0.889,0.982l0.049,6.684l-3.028,0.041 c-0.684,0.145-1.077,0.914-0.294,1.699l9.378,9.395C0.038,10.201,0.675,10.26,1.024,9.847z" transform="matrix(1 0 0 -1 0 0)"></path>
        <path fill-rule="evenodd" clip-rule="evenodd" stroke-width="0.5669" stroke-miterlimit="22.9256" d=" M10.43-9.854c4.98,5.258,5.292,13.535,0.484,19.167c-5.144,6.028-14.2,6.745-20.228,1.601c-6.028-5.145-6.745-14.201-1.6-20.229 c4.806-5.632,13.027-6.627,19.002-2.538l-0.854,1C1.813-14.475-5.583-13.547-9.92-8.465C-14.596-2.987-13.943,5.244-8.465,9.92 c5.479,4.675,13.709,4.023,18.385-1.455c4.337-5.083,4.09-12.534-0.344-17.318L10.43-9.854z" transform="matrix(1 0 0 -1 0 0)"></path>
    </symbol>
    <symbol id="discover" viewBox="-14.632 -14.632 29.264 29.264">
        <path fill-rule="evenodd" clip-rule="evenodd" stroke-width="0.5669" stroke-miterlimit="22.9256" d=" M12.113,7.691c3.89-6.108,2.623-14.293-3.167-18.91c-6.196-4.94-15.223-3.923-20.164,2.273c-4.939,6.196-3.922,15.223,2.274,20.164 c5.789,4.615,14.049,4.029,19.138-1.121l-1.029-0.82c-4.633,4.589-12.071,5.084-17.294,0.919 c-5.631-4.49-6.556-12.694-2.066-18.327c4.49-5.63,12.695-6.556,18.326-2.065c5.225,4.165,6.397,11.528,2.954,17.067L12.113,7.691z " transform="matrix(1 0 0 -1 0 0)"></path>
        <path fill-rule="evenodd" clip-rule="evenodd" stroke-width="0.216" stroke-miterlimit="22.9256" d=" M0.743-0.918c-0.536-0.381-1.279-0.256-1.66,0.279c-0.381,0.536-0.256,1.279,0.28,1.66c0.536,0.381,1.279,0.256,1.66-0.279 C1.404,0.206,1.279-0.537,0.743-0.918L0.743-0.918z M-1.497,2.118l-8.194-9.335L1.596-2.021L9.798,7.32L-1.497,2.118L-1.497,2.118z M-0.916,1.342l-6.202-6.616L0.99-1.227L7.493,5.54L-0.916,1.342L-0.916,1.342z M0.525-0.612c0.367,0.261,0.453,0.77,0.192,1.136 c-0.261,0.367-0.77,0.453-1.136,0.191c-0.367-0.26-0.452-0.77-0.192-1.135C-0.35-0.787,0.159-0.873,0.525-0.612z" transform="matrix(1 0 0 -1 0 0)"></path>
    </symbol>
    <symbol id="discussion" viewBox="-13.785 -14.593 27.571 29.185">
        <path fill-rule="evenodd" clip-rule="evenodd" stroke-width="0.5669" stroke-miterlimit="22.9256" d=" M-5.484,2.057c0.742,0,1.344-0.602,1.344-1.344s-0.602-1.344-1.344-1.344s-1.344,0.602-1.344,1.344S-6.227,2.057-5.484,2.057 L-5.484,2.057z M-0.177,14.309c-7.359,0-13.325-5.965-13.325-13.324S-7.536-12.34-0.177-12.34c0.995,0,2.295,0.295,3.485,0.654 l-0.554,1.313c-1.051-0.345-2.124-0.619-2.922-0.619c-6.565,0-11.887,5.321-11.887,11.888c0,6.564,5.322,11.886,11.887,11.886 c6.564,0,11.886-5.321,11.886-11.886c0-2.162-1.149-5.122-2.308-7.302l1.885-5.182L6.504-8.98C6.442-8.946,5.684-9.277,4.659-9.68 l0.568-1.346c0.813,0.316,1.337,0.572,1.276,0.605l6.8-3.598l-2.418,7.572l0.342,0.535c1.265,1.982,1.919,4.371,1.919,6.895 C13.148,8.344,7.183,14.309-0.177,14.309L-0.177,14.309z M5.004,2.057c0.742,0,1.344-0.602,1.344-1.344S5.746-0.631,5.004-0.631 c-0.742,0-1.344,0.602-1.344,1.344S4.262,2.057,5.004,2.057L5.004,2.057z M-0.099,2.057c0.742,0,1.344-0.602,1.344-1.344 S0.644-0.631-0.099-0.631s-1.344,0.602-1.344,1.344S-0.841,2.057-0.099,2.057z" transform="matrix(1 0 0 -1 0 0)"></path>
    </symbol>
    <symbol id="duizhang" viewBox="-13.987 -13.307 27.974 26.614">
        <polygon stroke="#231815" stroke-width="0.216" stroke-linecap="round" stroke-linejoin="round" stroke-miterlimit="3.8637" points=" 1.437,-8.799 0.093,-9.799 8.513,-13.109 6.711,-4.533 5.355,-5.486 6.523,-10.791 " transform="matrix(1 0 0 -1 0 0)"></polygon>
        <path stroke="#231815" stroke-width="0.216" stroke-linecap="round" stroke-linejoin="round" stroke-miterlimit="3.8637" d=" M0,13.199l3.817-9.34l10.062-0.744L-8.577-13.199L-6.175-3.4l-7.704,6.518L-3.817,3.86L0,13.199L0,13.199z M0,8.6l-2.6-6.36 L-9.454,1.73l5.247-4.438l-1.636-6.676L9.454,1.73L2.6,2.237L0,8.6z" transform="matrix(1 0 0 -1 0 0)"></path>
    </symbol>
    <symbol id="erweima" viewBox="-14.174 -14.277 28.349 28.555">
        <path d="M-14.125,14.042H-1.65l0.007-12.485h-12.481L-14.125,14.042L-14.125,14.042z M-9.172-1.788l7.534,0.015 v-2.491l-2.497,0.002v-2.498h2.497v-4.994h-2.497v-2.496l-4.993,0.001v2.495l2.493,0.008l0.002,2.49l2.479-0.021l0.018,2.517 h-2.497L-6.635-4.27L-9.172-4.29V-1.788L-9.172-1.788z M-14.174-9.263h2.542v-4.991h-2.542V-9.263L-14.174-9.263z M-14.17-1.771 V-6.76h2.539v-2.496h2.497v2.496h-2.494v4.987L-14.17-1.771L-14.17-1.771z M9.171-1.77L4.188-1.773l0.004-2.51l-2.5,0.021l-0.003-5 l2.494-0.002l0.001,2.497h2.498v-2.486L9.18-9.257L9.171-1.77L9.171-1.77z M9.172-11.758l2.5-0.001v2.498l2.498-0.003l-0.002-4.984 l-4.992-0.01L9.172-11.758L9.172-11.758z M1.639-11.78l2.496,0.001v-2.498H1.64L1.639-11.78L1.639-11.78z M11.667-1.785h2.497 v-2.497h-2.497V-1.785L11.667-1.785z M9.181,11.781l2.497-0.002v2.498h2.497V11.78l-2.497-0.001l-0.002-2.496h2.499l-0.001-4.994 h-2.496l-0.001,2.498L9.181,6.788v4.991l-4.998,0.004l0.004-2.504L1.688,9.283v4.994h7.482L9.181,11.781L9.181,11.781z M11.646,1.793l-0.001,2.498L9.146,4.288v2.499H4.151V4.296L1.672,4.295V1.799h2.497v2.492l2.479-0.002l0.001-2.496H11.646 L11.646,1.793z M-9.189,9.054V6.557h2.497v2.497H-9.189L-9.189,9.054z M-11.646,11.562l-0.094-7.548l7.6,0.031l0.004,7.501 L-11.646,11.562z" transform="matrix(1 0 0 -1 0 0)"></path>
    </symbol>
    <symbol id="huodong" viewBox="-14.465 -14.465 28.931 28.93">
        <path fill-rule="evenodd" clip-rule="evenodd" stroke-width="1.9199" stroke-miterlimit="22.9256" d=" M0.937,1.026c1.559,0.677,3.736,0.231,4.9-0.745c1.286-1.077,1.261-3.227,0.185-4.51C4.071-6.555,0.023-4.793-4.257-5.17 C-4.633-0.889-7.074,2.789-5.124,5.116c1.076,1.283,3.188,1.683,4.474,0.605C0.514,4.745,1.332,2.679,0.937,1.026z" transform="matrix(1 0 0 -1 0 0)"></path>
        <path fill-rule="evenodd" clip-rule="evenodd" stroke-width="0.5669" stroke-miterlimit="22.9256" d=" M-10.309-9.739c-4.923,5.196-5.23,13.378-0.479,18.944c5.084,5.959,14.036,6.667,19.994,1.583 c5.958-5.085,6.666-14.036,1.582-19.993c-4.75-5.567-12.876-6.551-18.782-2.509l0.844,0.989c5.358-3.582,12.668-2.665,16.955,2.357 c4.621,5.416,3.978,13.551-1.438,18.172S-5.184,13.782-9.805,8.367c-4.287-5.023-4.042-12.389,0.34-17.117L-10.309-9.739z" transform="matrix(1 0 0 -1 0 0)"></path>
    </symbol>
    <symbol id="jincaisunjian" viewBox="-14.387 -13.068 28.773 26.136">
        <path fill="#44A7DE" stroke="#44A7DE" stroke-width="0.5669" stroke-miterlimit="22.9256" d="M-14.016,4.596l19.418,8.102 l3.206-7.688h5.495v-17.663h-21.04V5.008H7.6l-2.756,6.607l-17.701-7.382l5.616-13.468v-2.417L-14.016,4.596L-14.016,4.596z M-5.776,3.857v-9.21l5.527,4.597l5.408-6.079l3.278,3.343l4.517-4.143L12.98,3.866L-5.776,3.857z" transform="matrix(1 0 0 -1 0 0)"></path>
        <path fill="#44A7DE" stroke="#44A7DE" stroke-width="0.216" stroke-miterlimit="22.9256" d="M5.039-3.182 c-1.112,0-2.014,0.9-2.014,2.014s0.901,2.015,2.014,2.015c1.113,0,2.014-0.899,2.014-2.015C7.053-2.279,6.151-3.182,5.039-3.182 L5.039-3.182z M5.039-2.564c0.772,0,1.398,0.625,1.398,1.396c0,0.771-0.626,1.398-1.398,1.398S3.642-0.396,3.642-1.168 C3.642-1.94,4.267-2.564,5.039-2.564z" transform="matrix(1 0 0 -1 0 0)"></path>
    </symbol>
    <symbol id="location" viewBox="-11.358 -14.419 22.716 28.838">
        <path stroke="#000000" stroke-width="0.216" stroke-miterlimit="22.9256" d="M-0.001-14.276c-3.73,2.871-8.672,8.946-9.804,11.817 c-0.687,1.741-1.445,3.515-1.445,5.521c0,6.219,5.037,11.25,11.25,11.25S11.25,9.28,11.25,3.062c0-1.097-0.169-2.313-0.432-3.368 L9.419,0.348C9.6,1.175,9.712,2.085,9.712,2.915c0,5.364-4.349,9.713-9.714,9.713c-5.364,0-9.713-4.349-9.713-9.713 c0-1.733,0.655-3.264,1.248-4.768c0.978-2.479,5.245-7.729,8.466-10.202c1.892,1.808,4.389,3.479,8.26,9.595l1.349-0.637 C5.099-10.23,2.196-12.176-0.001-14.276z" transform="matrix(1 0 0 -1 0 0)"></path>
        <path stroke="#000000" stroke-width="0.216" stroke-miterlimit="22.9256" d="M0.485-1.767c-2.523,0-4.568,2.045-4.568,4.563 c0,2.523,2.045,4.568,4.568,4.568c2.522,0,4.567-2.045,4.567-4.568C5.052,0.279,3.007-1.767,0.485-1.767L0.485-1.767z M0.485-0.407 c1.771,0,3.208,1.438,3.208,3.208c0,1.772-1.437,3.208-3.208,3.208c-1.772,0-3.208-1.436-3.208-3.208 C-2.723,1.029-1.287-0.407,0.485-0.407z" transform="matrix(1 0 0 -1 0 0)"></path>
    </symbol>
    <symbol id="mine" viewBox="-14.647 -14.647 29.295 29.295">
        <path fill-rule="evenodd" clip-rule="evenodd" stroke-width="0.216" stroke-miterlimit="22.9256" d=" M6.025-8.885h1.523c0,3.33-2.117,6.165-5.078,7.234c1.929,0.961,3.255,2.953,3.255,5.256c0,3.24-2.627,5.867-5.867,5.867 c-3.242,0-5.869-2.627-5.869-5.867c0-2.303,1.327-4.295,3.255-5.256C-5.717-2.72-7.833-5.555-7.833-8.885h1.523 c0,3.405,2.761,6.167,6.168,6.167C3.264-2.718,6.025-5.479,6.025-8.885L6.025-8.885z M-0.142-0.786 c-2.426,0-4.392,1.966-4.392,4.392c0,2.425,1.966,4.391,4.392,4.391c2.425,0,4.391-1.966,4.391-4.391 C4.249,1.18,2.283-0.786-0.142-0.786z" transform="matrix(1 0 0 -1 0 0)"></path>
        <path fill-rule="evenodd" clip-rule="evenodd" stroke-width="0.5669" stroke-miterlimit="22.9256" d=" M-10.52-9.781c-4.943,5.305-5.189,13.592-0.332,19.192c5.198,5.993,14.27,6.638,20.263,1.44c5.993-5.197,6.638-14.27,1.44-20.263 c-4.856-5.6-13.094-6.529-19.043-2.388l0.863,0.995c5.398-3.67,12.81-2.801,17.191,2.251C14.586-3.106,14,5.139,8.554,9.862 C3.106,14.586-5.139,14-9.862,8.554C-14.245,3.5-14.057-3.961-9.657-8.785L-10.52-9.781z" transform="matrix(1 0 0 -1 0 0)"></path>
    </symbol>
    <symbol id="paihangban" viewBox="-13.952 -13.34 27.904 26.68">
        <polygon points="-13.945,2.209 -6.843,2.207 -6.846,0.289 -12.031,0.292 -12.03,-11.42 12.028,-11.424 12.029,-3.126 6.923,-3.131 6.919,-1.206 13.952,-1.201 13.95,-13.34 -13.952,-13.338 " transform="matrix(1 0 0 -1 0 0)"></polygon>
        <polygon points="-5.382,7.715 5.295,7.713 5.296,-7.154 3.379,-7.152 3.377,5.793 -3.434,5.793 -3.43,-7.159 -5.352,-7.162 " transform="matrix(1 0 0 -1 0 0)"></polygon>
        <polygon points="-12.975,3.622 -11.309,3.622 -11.309,7.277 -12.975,7.277 " transform="matrix(1 0 0 -1 0 0)"></polygon>
        <polygon points="-10.176,3.625 -8.51,3.625 -8.51,7.279 -10.176,7.279 " transform="matrix(1 0 0 -1 0 0)"></polygon>
        <polygon points="-0.827,9.685 0.84,9.685 0.84,13.34 -0.827,13.34 " transform="matrix(1 0 0 -1 0 0)"></polygon>
        <polygon points="12.249,0.512 13.915,0.512 13.915,4.168 12.249,4.168 " transform="matrix(1 0 0 -1 0 0)"></polygon>
        <polygon points="6.936,0.471 8.602,0.471 8.602,4.127 6.936,4.127 " transform="matrix(1 0 0 -1 0 0)"></polygon>
        <polygon points="9.778,0.504 11.444,0.504 11.444,4.16 9.778,4.16 " transform="matrix(1 0 0 -1 0 0)"></polygon>
    </symbol>
    <symbol id="picture" viewBox="-14.101 -11.855 28.201 23.71">
        <path stroke-width="0.216" stroke-miterlimit="22.9256" d="M-13.993,11.747h27.985v-23.494h-27.985V11.747 L-13.993,11.747z M-11.876,9.651l-0.001-11.688l6.786,6.114l7.193-8.085L6.458,0.44l5.441-5.516L11.937,9.66L-11.876,9.651z" transform="matrix(1 0 0 -1 0 0)"></path>
        <path stroke-width="0.216" stroke-miterlimit="22.9256" d="M1.938,0.855c-1.479,0-2.679,1.193-2.679,2.678 c0,1.479,1.199,2.679,2.679,2.679c1.479,0,2.678-1.199,2.678-2.679C4.621,2.053,3.417,0.855,1.938,0.855L1.938,0.855z M1.938,1.675 c1.026,0,1.859,0.833,1.859,1.859c0,1.021-0.834,1.854-1.859,1.854c-1.027,0-1.859-0.832-1.859-1.854 C0.083,2.507,0.916,1.675,1.938,1.675z" transform="matrix(1 0 0 -1 0 0)"></path>
    </symbol>
    <symbol id="pinglun" viewBox="-14.268 -13.253 28.536 26.506">
        <polygon points="-12.278,-4.092 -4.823,-4.154 -4.842,-6.072 -14.186,-5.979 -14.268,13.253 14.162,13.197 14.268,-6.061 0.203,-6.087 -6.496,-13.253 -7.899,-11.948 -0.631,-4.169 12.338,-4.147 12.254,11.279 -12.33,11.279 " transform="matrix(1 0 0 -1 0 0)"></polygon>
        <polygon points="-8.648,4.323 -4.411,4.323 -4.411,2.41 -8.648,2.41 " transform="matrix(1 0 0 -1 0 0)"></polygon>
        <polygon points="-2.367,4.285 1.87,4.285 1.87,2.373 -2.367,2.373 " transform="matrix(1 0 0 -1 0 0)"></polygon>
        <polygon points="3.914,4.285 8.151,4.285 8.151,2.373 3.914,2.373 " transform="matrix(1 0 0 -1 0 0)"></polygon>
    </symbol>
    <symbol id="plun" viewBox="-18.032 -10.454 36.065 20.907">
        <path stroke-width="0.72" stroke-linecap="round" stroke-linejoin="round" stroke-miterlimit="22.9256" d=" M-14.18,10.094h31.852v-20.188H-14.18v8.064l-3.493,1.966l3.493,2.141V10.094L-14.18,10.094z M-9.54,2.519v-5.502h5.502v5.502 H-9.54L-9.54,2.519z M-0.631,2.519v-5.502h5.502v5.502H-0.631L-0.631,2.519z M8.231,2.519v-5.502h5.502v5.502H8.231z" transform="matrix(1 0 0 -1 0 0)"></path>
    </symbol>
    <symbol id="renshu" viewBox="-16.89 -14.121 33.78 28.242">
        <path stroke="#000000" stroke-width="0.216" stroke-miterlimit="22.9256" d="M-8.143-2.564c-3.14,1.282-5.354,4.367-5.354,7.975 c0,4.752,3.852,8.604,8.605,8.604c4.752,0,8.605-3.853,8.605-8.604c0-3.604-2.209-6.687-5.346-7.965 C3.361-3.974,7.02-8.566,7.02-14.013H5.669c0,5.827-4.724,10.55-10.55,10.55c-5.826,0-10.55-4.724-10.55-10.55h-1.351 C-16.783-8.571-13.13-3.982-8.143-2.564L-8.143-2.564z M-4.892-1.848c4.006,0,7.253,3.248,7.253,7.253s-3.248,7.253-7.253,7.253 s-7.254-3.248-7.254-7.253S-8.897-1.848-4.892-1.848z" transform="matrix(1 0 0 -1 0 0)"></path>
        <path stroke="#000000" stroke-width="0.216" stroke-miterlimit="22.9256" d="M5.578,12.18l0.161,0.002 c4.406,0,7.978-3.566,7.978-7.978c0-3.337-2.048-6.194-4.956-7.385c4.629-1.313,8.021-5.568,8.021-10.618H15.53 c0,5.396-4.379,9.781-9.781,9.781L5.578-4.019v1.5l0.161-0.003c3.714,0,6.725,3.012,6.725,6.726s-3.011,6.725-6.725,6.725 l-0.161-0.002V12.18z" transform="matrix(1 0 0 -1 0 0)"></path>
    </symbol>
    <symbol id="richeng" viewBox="-13.05 -12.012 26.1 24.023">
        <path fill="#44A7DE" d="M-13.05,10.989h4.097l0.008-2.995l3.997-0.006l-0.024,3l3.021,0.003l0.063-3.006L2.05,7.988l-0.018,3.006 l3.018-0.006V7.982l4.005,0.011L9.05,10.988l4,0.001v-23.001h-25.993L-13.05,10.989L-13.05,10.989z M-10.945,6.939l-0.01-16.951 l22.008-0.004L11.046,6.986L-10.945,6.939z" transform="matrix(1 0 0 -1 0 0)"></path>
        <polygon fill="#44A7DE" points="-3.949,4.988 -0.951,4.987 -0.95,1.988 -3.95,1.987 " transform="matrix(1 0 0 -1 0 0)"></polygon>
        <polygon fill="#44A7DE" points="1.042,5.001 4.04,5 4.041,2 1.041,1.998 " transform="matrix(1 0 0 -1 0 0)"></polygon>
        <polygon fill="#44A7DE" points="6.045,4.999 9.043,4.998 9.044,1.998 6.044,1.996 " transform="matrix(1 0 0 -1 0 0)"></polygon>
        <polygon fill="#44A7DE" points="-3.958,0.002 -0.959,0 -0.959,-3 -3.959,-3 " transform="matrix(1 0 0 -1 0 0)"></polygon>
        <polygon fill="#44A7DE" points="-8.963,-0.008 -5.965,-0.01 -5.965,-3.009 -8.965,-3.01 " transform="matrix(1 0 0 -1 0 0)"></polygon>
        <polygon fill="#44A7DE" points="1.042,-0.015 4.04,-0.016 4.041,-3.016 1.041,-3.018 " transform="matrix(1 0 0 -1 0 0)"></polygon>
        <polygon fill="#44A7DE" points="6.061,0.002 9.058,0 9.059,-3 6.059,-3 " transform="matrix(1 0 0 -1 0 0)"></polygon>
        <polygon fill="#44A7DE" points="-8.972,-5.021 -5.974,-5.022 -5.972,-8.022 -8.972,-8.023 " transform="matrix(1 0 0 -1 0 0)"></polygon>
        <polygon fill="#44A7DE" points="-3.959,-5.017 -0.961,-5.018 -0.96,-8.018 -3.96,-8.02 " transform="matrix(1 0 0 -1 0 0)"></polygon>
        <polygon fill="#44A7DE" points="1.051,-5.021 4.049,-5.023 4.05,-8.023 1.05,-8.023 " transform="matrix(1 0 0 -1 0 0)"></polygon>
        <polygon fill="#44A7DE" points="6.045,-4.986 9.042,-4.986 9.044,-7.986 6.044,-7.988 " transform="matrix(1 0 0 -1 0 0)"></polygon>
        <polygon fill="#44A7DE" points="-7.968,9.012 -5.943,9.012 -5.943,12.012 -7.968,12.012 " transform="matrix(1 0 0 -1 0 0)"></polygon>
        <polygon fill="#44A7DE" points="-0.945,8.988 1.078,8.988 1.078,11.988 -0.945,11.988 " transform="matrix(1 0 0 -1 0 0)"></polygon>
        <polygon fill="#44A7DE" points="6.016,9.007 8.04,9.007 8.04,12.007 6.016,12.007 " transform="matrix(1 0 0 -1 0 0)"></polygon>
    </symbol>
    <symbol id="setting" viewBox="-14.994 -14.992 29.988 29.984">
        <g transform="matrix(1 0 0 -1 0 0)">
            <path d="M0.004-4.15c-2.289,0-4.152,1.861-4.152,4.152s1.863,4.152,4.152,4.152c2.287,0,4.147-1.861,4.147-4.152 S2.292-4.15,0.004-4.15z M0.004,3.078c-1.697,0-3.076-1.381-3.076-3.076s1.379-3.076,3.076-3.076c1.692,0,3.071,1.381,3.071,3.076 S1.697,3.078,0.004,3.078z"></path>
            <path d="M-1.805-14.992c-0.246,0-0.461,0.168-0.521,0.406l-0.926,3.703c-0.722,0.223-1.433,0.522-2.119,0.896l-3.293-1.977 c-0.211-0.127-0.482-0.092-0.656,0.08l-2.559,2.559c-0.175,0.174-0.207,0.445-0.08,0.656l1.977,3.289 c-0.367,0.68-0.662,1.389-0.881,2.117l-3.723,0.932c-0.238,0.059-0.408,0.275-0.408,0.521v3.612c0,0.248,0.17,0.463,0.408,0.521 l3.7,0.924c0.228,0.729,0.529,1.438,0.9,2.123l-1.977,3.293c-0.128,0.213-0.095,0.484,0.079,0.658l2.556,2.555 c0.176,0.176,0.446,0.211,0.658,0.08l3.293-1.975c0.678,0.36,1.387,0.657,2.114,0.879l0.931,3.723 c0.061,0.24,0.274,0.408,0.521,0.408h3.615c0.246,0,0.463-0.168,0.521-0.408l0.927-3.705c0.727-0.227,1.438-0.527,2.116-0.895 l3.298,1.979c0.207,0.121,0.479,0.09,0.655-0.082l2.556-2.555c0.176-0.174,0.209-0.445,0.082-0.658L9.982,5.375 c0.363-0.676,0.658-1.385,0.877-2.109l3.728-0.934c0.239-0.059,0.407-0.275,0.407-0.521v-3.609c0-0.246-0.168-0.463-0.407-0.521 l-3.728-0.934c-0.219-0.729-0.514-1.439-0.875-2.111l1.979-3.295c0.127-0.213,0.094-0.479-0.082-0.658l-2.556-2.56 c-0.176-0.174-0.446-0.203-0.655-0.082L5.373-9.98c-0.681-0.368-1.392-0.67-2.119-0.896l-0.922-3.703 c-0.062-0.238-0.275-0.406-0.523-0.406L-1.805-14.992L-1.805-14.992z M-5.381-8.824c0.093,0,0.187-0.021,0.271-0.069 c0.789-0.453,1.615-0.808,2.453-1.035c0.186-0.058,0.328-0.203,0.377-0.396l0.897-3.592l2.773,0.002l0.896,3.594 c0.048,0.188,0.189,0.334,0.375,0.392C3.512-9.695,4.336-9.341,5.114-8.89c0.17,0.1,0.377,0.096,0.545-0.007l3.203-1.926 l1.963,1.97L8.901-5.656C8.799-5.488,8.799-5.279,8.895-5.109C9.338-4.338,9.678-3.523,9.909-2.67 c0.052,0.188,0.199,0.334,0.39,0.381l3.621,0.908V1.39l-3.621,0.906c-0.189,0.047-0.338,0.193-0.39,0.381 C9.68,3.523,9.339,4.346,8.895,5.119C8.799,5.287,8.801,5.496,8.901,5.664l1.92,3.201L8.86,10.826L5.657,8.904 C5.491,8.801,5.284,8.799,5.112,8.9c-0.78,0.444-1.604,0.799-2.453,1.032c-0.186,0.056-0.327,0.199-0.375,0.392L1.387,13.92 h-2.773l-0.903-3.617c-0.048-0.188-0.193-0.338-0.382-0.389c-0.85-0.23-1.672-0.572-2.444-1.016 C-5.283,8.796-5.49,8.798-5.66,8.904l-3.199,1.92l-1.961-1.963l1.92-3.197c0.1-0.168,0.1-0.377,0.002-0.547 C-9.349,4.332-9.701,3.506-9.937,2.66c-0.053-0.189-0.201-0.33-0.389-0.377l-3.592-0.896v-2.771l3.616-0.906 c0.189-0.047,0.338-0.193,0.39-0.381c0.229-0.851,0.569-1.67,1.018-2.443c0.098-0.17,0.096-0.379-0.006-0.547l-1.92-3.195 l1.963-1.965l3.199,1.922C-5.573-8.85-5.477-8.824-5.381-8.824z"></path>
        </g>
    </symbol>
    <symbol id="setting2" viewBox="-15.696 -16.012 31.392 32.023">
        <g transform="matrix(1 0 0 -1 0 0)">
            <g>
                <path fill="none" stroke="#4DFFBA" stroke-width="2" stroke-miterlimit="10" d="M3.98-0.01C3.972-2.221,2.175-4.004-0.034-3.996 S-4.028-2.191-4.02,0.018c0.008,2.211,1.805,3.994,4.015,3.986S3.988,2.199,3.98-0.01z"></path>
            </g>
            <g>
                <path fill="none" stroke="#4DFFBA" stroke-width="2" stroke-miterlimit="10" d="M-5.602-7.941"></path>
            </g>
        </g>
        <path fill="none" stroke="#4DFFBA" stroke-width="2" stroke-miterlimit="10" d="M-3.149,12.012l-0.184-1.442 c-1.521-0.438-2.903-1.195-4.076-2.195l-4.61,1.277l-2.427-4.166l3.374-3.396c-0.128-0.66-0.202-1.342-0.204-2.041 c-0.004-0.842,0.098-1.658,0.271-2.445L-14-5.346l2.396-4.187l4.242,1.123c1.146-0.965,2.49-1.692,3.963-2.131l1.174-4.451 l4.82-0.018l1.287,4.828c1.09,0.444,2.09,1.063,2.973,1.815l4.611-1.276l2.426,4.168l-3.373,3.395 c0.127,0.664,0.201,1.344,0.205,2.043c0.002,0.547-0.049,1.08-0.125,1.605l3.846,3.778L12.05,9.533L7.037,8.207 c-0.91,0.811-1.947,1.479-3.09,1.953l-1.273,4.834l-5.822,0.018" transform="matrix(1 0 0 -1 0 0)"></path>
    </symbol>
    <symbol id="suoyouhuodong" viewBox="-14.037 -14.15 28.074 28.302">
        <polygon fill="#EB6B4F" points="5.799,5.963 14.037,5.963 14.037,14.151 5.799,14.151 " transform="matrix(1 0 0 -1 0 0)"></polygon>
        <path fill="#009FE8" d="M-14.037,10.907h7.848V2.984h-7.848V10.907L-14.037,10.907z M-5.186,10.907h7.34V2.984h-7.34V10.907 L-5.186,10.907z M11.06,1.98v-7.26h-7.9v7.26H11.06L11.06,1.98z M2.155-5.277h-7.34V1.98h7.34V-5.277L2.155-5.277z M-6.188-5.277 h-7.848V1.98h7.848V-5.277L-6.188-5.277z M11.06-6.281v-7.869h-7.9v7.869H11.06L11.06-6.281z M2.155-14.15h-7.34v7.869h7.34V-14.15 L2.155-14.15z M-6.188-14.15h-7.848v7.869h7.848V-14.15z" transform="matrix(1 0 0 -1 0 0)"></path>
    </symbol>
    <symbol id="suoyouxiaodui" viewBox="-21.199 -14.301 42.398 28.603">
        <path fill="#44A7DE" stroke="#44A7DE" stroke-width="0.216" stroke-miterlimit="22.9256" d="M9.886,11.927l0.162,0.003 c4.406,0,7.977-3.57,7.977-7.979c0-3.336-2.048-6.193-4.955-7.385c4.629-1.313,8.021-5.568,8.021-10.617h-1.253 c0,5.4-4.379,9.781-9.78,9.781L9.886-4.271v1.5l0.162-0.002c3.713,0,6.725,3.013,6.725,6.727s-3.012,6.725-6.725,6.725 l-0.162-0.002V11.927z" transform="matrix(1 0 0 -1 0 0)"></path>
        <path fill="#44A7DE" stroke="#44A7DE" stroke-width="0.216" stroke-miterlimit="22.9256" d="M-0.147-14.193h-12.041 c0,5.515,3.705,10.16,8.76,11.588c-3.164,1.313-5.39,4.432-5.39,8.068c0,4.822,3.909,8.73,8.73,8.73c4.821,0,8.73-3.908,8.73-8.73 c0-3.657-2.249-6.788-5.439-8.088c5.021-1.451,8.69-6.081,8.69-11.568H-0.147z" transform="matrix(1 0 0 -1 0 0)"></path>
        <path fill="#44A7DE" stroke="#44A7DE" stroke-width="0.216" stroke-miterlimit="22.9256" d="M-9.886,11.789l-0.16,0.002 c-4.406,0-7.979-3.571-7.979-7.978c0-3.339,2.049-6.193,4.956-7.387c-4.63-1.311-8.022-5.565-8.022-10.618h1.254 c0,5.402,4.379,9.781,9.781,9.781l0.17-0.002v1.5l-0.16-0.001c-3.715,0-6.726,3.011-6.726,6.727c0,3.714,3.011,6.725,6.726,6.725 l0.16-0.001V11.789z" transform="matrix(1 0 0 -1 0 0)"></path>
    </symbol>
    <symbol id="taolun" viewBox="-13.371 -13.929 26.743 27.858">
        <path fill="#44A7DF" stroke="#44A7DF" stroke-width="1.9199" stroke-miterlimit="22.9256" d="M3.837-10.428 C5.273-9.844,5.903-9.49,6.508-9.074c1.747-0.957,3.493-1.913,5.239-2.87C9.8-5.699,10.449-7.78,9.8-5.699 c1.334,2.059,1.953,4.289,1.953,6.586c0,6.671-5.411,12.082-12.082,12.082s-12.082-5.41-12.082-12.081 c0-6.67,5.411-12.082,12.082-12.082C0.837-11.194,1.969-11.034,3.837-10.428L3.837-10.428z M4.943,1.921 c0.742,0,1.344-0.602,1.344-1.344S5.685-0.767,4.943-0.767c-0.742,0-1.344,0.602-1.344,1.345S4.201,1.921,4.943,1.921L4.943,1.921z M-0.159,1.921c0.742,0,1.344-0.602,1.344-1.344S0.583-0.767-0.159-0.767c-0.742,0-1.344,0.602-1.344,1.344 S-0.901,1.921-0.159,1.921L-0.159,1.921z M-5.545,1.921c0.742,0,1.344-0.602,1.344-1.344s-0.602-1.344-1.344-1.344 c-0.742,0-1.344,0.602-1.344,1.344S-6.287,1.921-5.545,1.921z" transform="matrix(1 0 0 -1 0 0)"></path>
        <path fill="#FFFFFF" stroke="#FFFFFF" stroke-width="0.5669" stroke-miterlimit="22.9256" d="M-5.545,1.921 c0.742,0,1.344-0.602,1.344-1.344s-0.602-1.344-1.344-1.344c-0.742,0-1.344,0.602-1.344,1.344S-6.287,1.921-5.545,1.921z" transform="matrix(1 0 0 -1 0 0)"></path>
        <path fill="#FFFFFF" stroke="#FFFFFF" stroke-width="0.5669" stroke-miterlimit="22.9256" d="M-0.159,1.921 c0.742,0,1.344-0.602,1.344-1.344S0.583-0.767-0.159-0.767c-0.742,0-1.344,0.602-1.344,1.344S-0.901,1.921-0.159,1.921z" transform="matrix(1 0 0 -1 0 0)"></path>
        <path fill="#FFFFFF" stroke="#FFFFFF" stroke-width="0.5669" stroke-miterlimit="22.9256" d="M4.943,1.921 c0.742,0,1.344-0.602,1.344-1.344S5.685-0.767,4.943-0.767c-0.742,0-1.344,0.602-1.344,1.345S4.201,1.921,4.943,1.921z" transform="matrix(1 0 0 -1 0 0)"></path>
    </symbol>
    <symbol id="tiaozhanrizhi" viewBox="-13.108 -14.217 26.217 28.433">
        <path stroke-width="0.2401" stroke-linecap="round" stroke-linejoin="round" stroke-miterlimit="3.8637" d=" M-11.736,14.097h24.725v-28.193h-24.725v3.839h1.833v-1.749h16.78v24.016h-16.78v-1.855h-1.833V14.097L-11.736,14.097z M-12.988,8.587V6.864h3.788v1.723H-12.988L-12.988,8.587z M-12.988,4.878V3.156h3.788v1.722H-12.988L-12.988,4.878z M-12.988,1.061v-1.722h3.788v1.722H-12.988L-12.988,1.061z M-12.988-2.757v-1.721h3.788v1.721H-12.988L-12.988-2.757z M-12.988-6.573v-1.723h3.788v1.723H-12.988L-12.988-6.573z M8.036-12.009h3.12v24.017h-3.12V-12.009z" transform="matrix(1 0 0 -1 0 0)"></path>
    </symbol>
    <symbol id="time" viewBox="-14.132 -14.131 28.264 28.263">
        <polygon points="-1.084,7.746 0.791,7.746 0.791,-0.11 5.928,-0.11 5.938,-2.001 0.791,-2.004 0.791,-2.529 -1.084,-2.529 " transform="matrix(1 0 0 -1 0 0)"></polygon>
        <path stroke="#000000" stroke-width="0.5669" stroke-miterlimit="22.9256" d="M-11.705-7.403C-15.448-1.501-14.21,6.4-8.614,10.843 c5.989,4.757,14.7,3.759,19.457-2.229c4.757-5.989,3.759-14.7-2.229-19.457c-5.596-4.444-13.567-3.864-18.47,1.115l0.994,0.784 c4.464-4.437,11.641-4.928,16.69-0.917c5.443,4.323,6.351,12.241,2.027,17.688c-4.323,5.443-12.241,6.35-17.684,2.027 C-12.879,5.84-14.023-1.26-10.71-6.616L-11.705-7.403z" transform="matrix(1 0 0 -1 0 0)"></path>
    </symbol>
    <symbol id="xiangqing" viewBox="-11.634 -14.083 23.269 28.167">
        <polygon fill-rule="evenodd" clip-rule="evenodd" fill="#009FE8" points="-11.634,14.084 3.673,14.083 11.625,6.123 9.937,6.129 3.662,12.447 3.665,6.152 11.633,6.123 11.634,-14.083 10.409,-12.859 10.41,4.898 2.448,4.897 2.449,12.859 -10.412,12.858 -10.41,-12.859 10.409,-12.859 11.634,-14.083 -11.634,-14.084 " transform="matrix(1 0 0 -1 0 0)"></polygon>
        <polygon fill-rule="evenodd" clip-rule="evenodd" fill="#009FE8" points="-6.709,1.207 6.104,1.207 6.104,-0.033 -6.709,-0.033 " transform="matrix(1 0 0 -1 0 0)"></polygon>
        <polygon fill-rule="evenodd" clip-rule="evenodd" fill="#009FE8" points="-6.709,-2.438 6.104,-2.438 6.104,-3.678 -6.709,-3.678 " transform="matrix(1 0 0 -1 0 0)"></polygon>
        <polygon fill-rule="evenodd" clip-rule="evenodd" fill="#009FE8" points="-6.709,-6.083 6.104,-6.083 6.104,-7.322 -6.709,-7.322 " transform="matrix(1 0 0 -1 0 0)"></polygon>
    </symbol>
    <symbol id="yibaoming" viewBox="-16.748 -14.301 33.496 28.603">
        <path fill="#EC6B4F" stroke="#EC6B4F" stroke-width="0.216" stroke-miterlimit="22.9256" d="M5.435,11.927l0.161,0.002 c4.406,0,7.978-3.566,7.978-7.978c0-3.337-2.048-6.194-4.956-7.385c4.63-1.313,8.022-5.567,8.022-10.617h-1.253 c0,5.396-4.379,9.781-9.781,9.781L5.435-4.272v1.5l0.161-0.001c3.714,0,6.725,3.017,6.725,6.729s-3.011,6.725-6.725,6.725 l-0.161-0.002V11.927z" transform="matrix(1 0 0 -1 0 0)"></path>
        <path fill="#EC6B4F" stroke="#EC6B4F" stroke-width="0.216" stroke-miterlimit="22.9256" d="M-4.599-14.193H-16.64 c0,5.519,3.705,10.16,8.76,11.594c-3.164,1.312-5.39,4.43-5.39,8.063c0,4.821,3.909,8.73,8.73,8.73s8.73-3.909,8.73-8.73 c0-3.658-2.25-6.789-5.439-8.088c5.02-1.452,8.691-6.081,8.691-11.568H-4.599z" transform="matrix(1 0 0 -1 0 0)"></path>
    </symbol>
    <symbol id="zhaoduishou" viewBox="-12.15 -15.698 24.299 31.396">
        <path fill="#44A7DE" stroke="#44A7DE" stroke-width="0.216" stroke-linecap="round" stroke-linejoin="round" stroke-miterlimit="22.9256" d=" M-1.085-12.795h-10.956c0,5.514,3.705,10.16,8.76,11.589c-3.164,1.313-5.39,4.43-5.39,8.067c0,4.82,3.909,8.729,8.73,8.729 c4.821,0,8.73-3.908,8.73-8.729c0-3.639-2.225-6.753-5.387-8.066c-3.499-0.397-6.216-3.369-6.216-6.977 C-2.813-9.947-2.164-11.561-1.085-12.795L-1.085-12.795z M1.642-13.23L1.511-13.17l-0.92-2.035l0.86-0.385l0.921,2.035L2.25-13.501 c2.838-1.079,6.058,0.234,7.312,3.041c1.299,2.908-0.005,6.32-2.914,7.619s-6.32-0.006-7.619-2.914 C-2.229-8.563-1.057-11.838,1.642-13.23L1.642-13.23z M2.271-12.633c2.498-1.115,5.428,0.006,6.544,2.504 c1.116,2.498-0.004,5.428-2.503,6.543C3.814-2.47,0.886-3.59-0.229-6.088S-0.227-11.516,2.271-12.633L2.271-12.633z M11.228-8.436 c0.525-1.354,0.814-2.822,0.814-4.359H9.502C10.527-11.62,11.167-10.102,11.228-8.436z" transform="matrix(1 0 0 -1 0 0)"></path>
    </symbol>
    <symbol id="zuji" viewBox="-7.554 -14.213 15.108 28.426">
        <path fill="#44A7DE" d="M-1.843-2.57c0.741-3.355-0.604-6.523-1.104-7.871c-0.129-0.344,0.025-1.156,0.057-1.234 C1.105-22.845,16.387,6.364,0.444,8.354C-10.52,9.723-2.67,1.179-1.843-2.57z" transform="matrix(1 0 0 -1 0 0)"></path>
        <path fill="#44A7DE" d="M-6.133,14.186c1.033,0.199,2.104-0.711,2.39-2.03c0.286-1.321-0.317-2.555-1.351-2.751 c-1.034-0.198-2.103,0.712-2.389,2.031C-7.77,12.756-7.165,13.988-6.133,14.186z" transform="matrix(1 0 0 -1 0 0)"></path>
        <path fill="#44A7DE" d="M-1.443,13.218c0.786,0.127,1.572-0.585,1.756-1.591S0.008,9.703-0.778,9.576 c-0.786-0.127-1.572,0.586-1.756,1.591C-2.718,12.173-2.229,13.091-1.443,13.218z" transform="matrix(1 0 0 -1 0 0)"></path>
        <path fill="#44A7DE" d="M2.367,11.624c0.656,0.05,1.246-0.591,1.318-1.43c0.072-0.839-0.401-1.562-1.058-1.61 c-0.656-0.049-1.246,0.592-1.317,1.43C1.238,10.854,1.711,11.574,2.367,11.624z" transform="matrix(1 0 0 -1 0 0)"></path>
        <path fill="#44A7DE" d="M5.316,9.795C5.885,9.85,6.41,9.305,6.489,8.576C6.568,7.85,6.172,7.215,5.604,7.16S4.51,7.65,4.43,8.379 C4.352,9.105,4.748,9.74,5.316,9.795z" transform="matrix(1 0 0 -1 0 0)"></path>
    </symbol>
    <symbol id="appreciate" viewBox="-12.501 -12.7 25.002 25.401">
        <path fill="none" stroke-width="1.9199" stroke-miterlimit="22.9256" d="M0,7.412 c1.443,2.885,2.885,4.328,5.771,4.328c3.185,0,5.77-2.586,5.77-5.771c0-5.771-5.77-11.542-11.541-17.312 C-5.771-5.572-11.541,0.199-11.541,5.97c0,3.186,2.585,5.771,5.771,5.771C-2.885,11.74-1.442,10.297,0,7.412z" transform="matrix(1 0 0 -1 0 0)"></path>
    </symbol>
    <symbol id="star" viewBox="-14.781 -14.336 29.563 28.673">
        <path fill-rule="evenodd" clip-rule="evenodd" stroke-width="0.5669" stroke-miterlimit="22.9256" d=" M-0.04,13.587l3.857-9.44l10.171-0.752L-8.71-13.096l2.428,9.904l-7.786,6.586l10.17,0.752L-0.04,13.587L-0.04,13.587z M10.179-13.78L9.116-8.828L8.053-3.877L4.704-6.34L1.355-8.805l4.412-2.488L10.179-13.78L10.179-13.78z M-0.04,7.338l-2.215-5.42 l-5.838-0.432l4.469-3.781L-5.018-7.98l13.03,9.467L2.174,1.918L-0.04,7.338z" transform="matrix(1 0 0 -1 0 0)"></path>
    </symbol>
    <path fill="#44A7DE" stroke="#44A7DE" stroke-width="0.216" stroke-miterlimit="22.9256" d="M84.219,233.488H73.263 c0-5.513,3.705-10.16,8.76-11.588c-3.164-1.313-5.39-4.43-5.39-8.068c0-4.819,3.909-8.729,8.729-8.729 c4.821,0,8.73,3.909,8.73,8.729c0,3.639-2.225,6.754-5.387,8.066c-3.499,0.398-6.217,3.371-6.217,6.977 C82.491,230.64,83.142,232.254,84.219,233.488L84.219,233.488z M86.946,233.925l-0.131-0.059l-0.92,2.035l0.86,0.384l0.92-2.035 l-0.122-0.055c2.838,1.079,6.058-0.234,7.313-3.041c1.299-2.909-0.007-6.32-2.914-7.619c-2.909-1.299-6.32,0.005-7.62,2.915 C83.078,229.256,84.249,232.531,86.946,233.925L86.946,233.925z M87.578,233.325c2.498,1.116,5.428-0.005,6.544-2.503 c1.114-2.498-0.005-5.428-2.503-6.544s-5.43,0.005-6.544,2.503C83.959,229.28,85.08,232.21,87.578,233.325z"></path>
</svg>